<?xml version="1.0" encoding="UTF-8"?>
<svg id="Layer_1" data-name="Layer 1" xmlns="http://www.w3.org/2000/svg" viewBox="0 0 723.49 807.15">
  <defs>
    <style>
      .cls-1 {
        fill: #fde8b4;
      }

      .cls-1, .cls-2, .cls-3, .cls-4, .cls-5, .cls-6 {
        stroke-width: 0px;
      }

      .cls-2 {
        fill: #f8bcbe;
      }

      .cls-3 {
        fill: #fabebe;
      }

      .cls-4 {
        fill: #fbf7ec;
      }

      .cls-5 {
        fill: #abdae5;
      }

      .cls-6 {
        fill: #fddad7;
      }
    </style>
  </defs>
  <path class="cls-3" d="M226.33,415.57c-16.02-4.64-28.82-13.39-37.92-26.54-8.97-12.96-10.77-27.28-3.59-41.92,4.88-9.96,9.25-20.24,17.26-28.31.8-.81,1.84-2.01,1.09-3.05-.9-1.25-2.41-.53-3.68-.12-10.25,3.33-20.58,6.4-31.17,8.46-11.87,2.31-23.88,3.62-35.88,5.09-11.42,1.4-22.81,1.88-34.29,2-5.11.05-9.5-1.23-11.98-5.35-2.89-4.8-.6-9.86,2.09-14.06,12.72-19.88,29.1-36.62,46.18-52.67,16.92-15.9,34.53-31.03,52.8-45.38,4.56-3.58,9.26-7,14.02-10.31,3.61-2.51,4.92-5.22,2.96-9.63-4.37-9.83-8.71-19.73-10.78-30.37-3.37-17.34-5.28-34.76-1.69-52.33,3.08-15.06,9.66-28.58,19.26-40.43,12.59-15.55,27.39-28.87,44.55-39.19,16.17-9.73,33.17-17.77,51.13-23.99C323.45,1.64,340.45-.8,358,.23c20,1.17,37.58,8.16,52.72,21.67,13.08,11.67,23.17,25.55,32.57,40.13,4.83,7.49,10.33,14.53,15.44,21.84,1.28,1.83,2.91,1.39,4.45.95,13.2-3.8,26.7-6.31,40.15-8.97,13.32-2.64,26.87-3.84,40.29-5.81,10.65-1.57,21.35-2.79,31.99-4.37,4.44-.66,8.93-.92,13.34-1.23,15.37-1.07,30.83-2.21,46.14.83,6.96,1.38,14.03,2.76,19.63,7.61,8.23,7.13,9.15,19.1,2.72,30.37-8.55,15-20.03,27.64-32.34,39.47-16.37,15.74-34.38,29.31-53.99,41.03-17.86,10.68-36.53,19.63-55.01,29-3.67,1.86-4.99,3.04-2.45,7.3,4.69,7.83,10.72,14.71,15.26,22.61,3.75,6.53,3.27,12.19-2.07,17.6-2.64,2.68-5.34,5.36-8.72,7.28-3,1.7-4.44,3.86-2.23,7.76,3.28,5.79.85,11.13-2.95,15.91-1.44,1.82-2.97,3.57-4.51,5.31-1.84,2.07-2.29,4.31-1.18,6.91,3.05,7.11,1.64,13.58-4.11,18.42-5.35,4.51-6.08,9.31-4.55,15.86,4.21,18.1-7.41,30.96-25.01,32.24-15.38,1.12-30.33-2.22-45-6.74-4.43-1.36-8.98-2.22-13.32-4-5.89-2.41-9.4,1.96-12.64,5.55-14.42,15.98-20.81,35.34-24.2,56.25-2.68,16.48-1.99,32.78.47,49.01,1.26,8.32,5.06,16.1,10.81,22.55,2.37,2.66,4.27,5.5,4.87,8.99.62,3.59-.62,5.37-4.78,5.62-6.03.35-11.13-2.45-16.14-4.57-16.66-7.05-34.19-11.79-50.69-19.14-12.59-5.61-25.11-11.34-38.11-15.97-9.11-3.24-18.49-5.37-28.05-6.33-10.88-1.09-21.84-1.99-32.76-1.9-10.06.08-20.3.44-29.93,3.99-2.89,1.06-5.37,3.24-8.05,4.88-1.96,1.2-3.92,2.98-6.15.47-2.18-2.46-.22-4.3,1.05-6.16,4.89-7.11,12.24-11.61,18.54-17.21,9.92-8.81,19.44-17.93,26.8-29.66ZM372.25,488.71c-.06-3.36-2.94-5.24-3.32-7.89-1.53-10.63-4.22-21.14-4.18-31.95.06-15.4,1.46-30.53,5.63-45.57,3.3-11.89,7.45-23.18,14.52-33.13,2.84-3.99,5.71-8.45,9.05-12.02.71-.76,4.75-4.57,1.14-7.51-3.16-2.58-6.5-5.14-9.9-7.19-6.21-3.75-11.4-8.43-16.03-13.81-1.03-1.19-3.46-2.75-1.34-5.09,2.18-2.4,4.11-.48,5.69.65,4.65,3.32,9.48,6.61,14.32,9.33,8.69,4.89,17.67,9.49,27.22,12.87,18.37,6.49,36.91,11.76,56.59,11.69,10.74-.04,17.57-8.78,15.56-19.31-.57-2.96-2.09-5.5-2.54-8.47-.96-6.36,3.38-10.12,6.77-14.3,4.42-5.45,4.09-6.75-2.77-8.92-4.36-1.38-4.91-3.14-1.33-5.99,3.79-3.02,7.36-6.21,10.22-10.07,2.54-3.43,5.55-6.96,6.58-10.91.72-2.78-2.64-5.73-4.42-8.45-1.16-1.76-.85-3.17-.13-5.07,2.44-6.39,8.24-9.02,13.34-12.37,3.25-2.13,4.57-4.85,3.37-8.39-.78-2.31-2.1-4.53-3.6-6.47-5.97-7.76-10.86-16.23-15.95-24.53-3.5-5.71-6.82-11.8-8.02-18.54-1.85-10.37-1.53-20.82-.22-31.24.71-5.65-1.04-10.87-2.96-15.98-.83-2.21-2.6-4.02-5.45-1.87-17.97,13.63-37.59,24.85-55.69,38.31-11.25,8.36-23.78,14.89-34.97,23.39-1.98,1.51-3.79,3.26-5.88,4.6-17.72,11.38-35.67,22.43-53.16,34.16-6.99,4.69-14.24,8.97-21.45,13.17-4.78,2.79-6.32,6.39-7.09,10.82-2.78,16-6.62,31.68-11.8,47.11-7.03,20.96-16.32,40.94-26.48,60.41-6.56,12.58-13.67,25.02-23.39,35.94-8.07,9.06-16.18,18.19-23.76,27.73-.86,1.08-2.89,1.82-1.95,3.55.7,1.29,2.45.7,3.71.66,11.98-.4,23.93.29,35.86,1.15,4.9.35,9.9.53,14.73,1.98,11.51,3.46,22.84,7.37,34.05,11.74,13.8,5.38,27.01,12.09,40.8,17.46,9.24,3.59,18.64,6.58,28.62,8.31ZM602.82,75.56c-6.89-1.22-12.62,1.03-18.47,1.38-14.9.9-29.62,3.29-44.3,5.55-18.99,2.92-37.96,6.24-56.79,10.31-15.86,3.43-31.61,7.31-47.3,11.29-20.24,5.13-40.41,10.68-59.88,18.55-8.68,3.51-17.34,7.12-25.91,10.86-15.83,6.9-31.5,14.17-47.03,21.72-12.27,5.96-24.61,11.93-36.21,19.05-9.15,5.61-18.33,11.25-27.51,16.79-10.55,6.37-20.38,13.77-30.18,21.03-8,5.93-15.85,12.36-23.77,18.44-10.37,7.97-20.33,16.44-29.94,25.16-15.26,13.85-29.78,28.57-43.19,44.3-4.07,4.77-8.16,9.53-12.26,14.27-.92,1.07-1.62,2.2-1.05,3.61.66,1.64,2.21,1.19,3.47,1.23,13.65.41,27.1-.97,40.55-3.42,6.98-1.27,13.81-2.99,20.71-4.47,10.38-2.23,20.45-5.62,30.38-9.01,12.16-4.15,24.07-9.33,35.84-14.69,8.58-3.9,17.06-8.06,25.77-11.67,4.75-1.97,9.07-4.68,13.7-6.86,17.42-8.2,34.2-17.56,50.35-28.04,4.4-2.85,8.33-7.17,12.65-9.13,5.32-2.42,10.04-5.58,14.81-8.62,11.42-7.29,22.13-15.72,33.74-22.66,11.07-6.62,21.28-14.44,32.2-21.24,9.13-5.68,17.94-11.87,26.94-17.77,8.66-5.67,17.63-10.89,26-16.96,13.28-9.63,27.83-17.07,42.03-25.06,10.91-6.14,22.15-11.81,33.53-17.2,16.64-7.88,33.37-15.44,50.71-21.66,3.32-1.19,7.05-1.72,10.42-5.07ZM203.04,134.05c0,2.91-.79,7.89.15,12.52,2.82,13.88,6.15,27.68,11.84,40.74.85,1.95,1.57,4.19,4.96,2.11,8.52-5.23,17.32-9.94,25.74-15.39,10.6-6.85,21.94-12.63,33.18-18.43,19.15-9.86,38.45-19.46,58.53-27.31,11.01-4.31,21.44-9.84,32.57-13.99,11.85-4.42,23.47-9.48,35.57-13.34,12.23-3.9,24.36-8.11,36.58-12.04,3.48-1.12,4.05-2.4,1.9-5.6-6.76-10.05-13.83-19.87-20.85-29.74-8.33-11.72-18.67-21.34-30.17-29.43-9.62-6.77-21.33-9.67-33.06-10.9-21.13-2.23-41.32,2.79-60.59,10.62-16.25,6.6-31.63,15.15-46.19,25.26-15.69,10.9-28.51,24.35-38.53,40.3-8.08,12.86-13.43,26.96-11.63,44.63ZM649.66,89.35c-.58-3.36-1.44-6.7-4.74-7.84-4.65-1.61-9.34-2.92-14.57-1.86-13.18,2.67-25.66,7.57-38.26,11.95-14.38,4.99-28.45,10.86-42.02,17.87-9.08,4.69-18.44,8.82-27.29,13.99-7.5,4.38-15.32,8.2-23.01,12.24-4.74,2.49-5.75,5.03-3.72,10.06,1.12,2.77,2.33,5.45,2.65,8.51,1.11,10.77.91,21.56,1.01,32.36.05,4.82,1.04,9.57,2.42,14.16.98,3.24,2.82,5.08,6.68,2.86,3.55-2.04,7.4-3.64,11.07-5.47,12.29-6.1,24.17-13.02,36.52-18.99,16.83-8.13,31.27-19.7,45.93-30.94,6.24-4.79,10.87-11.69,17.12-16.46,7.31-5.57,12.68-12.69,18.49-19.49,5.74-6.71,9.4-14.57,11.71-22.95Z"/>
  <path class="cls-2" d="M305.73,601.04c0-11.49.08-22.98-.05-34.47-.04-3.63-.41-7.3-1.04-10.88-.6-3.43-3.2-5.31-6.36-6.37-1.66-.56-3.82-.34-3.5-3.15.29-2.58,2.51-2.38,4.11-2.86,2.84-.85,5.54.81,8.37.77,7.49-.1,14.98-.14,22.47-.18,1.32,0,2.63.06,3.95.12,1.35.07,2.79.08,2.88,1.97.07,1.54-.66,2.66-2.2,2.85-6.36.8-7.36,5.81-7.55,10.57-.4,10.14-.05,20.31-.2,30.47-.05,3.22,1.06,4.36,4.33,4.33,14.49-.13,28.98-.13,43.46,0,3.23.03,4.39-.97,4.33-4.26-.17-9.49-.03-18.98-.07-28.48-.04-7.6-2.06-10.29-9.41-12.56-1.48-.46-2.3-1.19-2.37-2.74-.06-1.52,1.03-1.83,2.15-2.31,1.76-.74,3.59-.9,5.39-.65,10.1,1.41,20.19,1.3,30.29,0,1.49-.19,2.97-.05,4.39.64,1.25.61,1.58,1.59,1.54,2.84-.04,1.4-.78,1.93-2.12,2.26-6.94,1.69-8.71,3.31-8.77,10.65-.21,25.98-.25,51.96.07,77.93.07,5.19.31,11.56,8.4,11.72,1.76.03,2.59,1.43,2.31,3.19-.26,1.61-1.62,2.27-2.95,2.13-12.12-1.34-24.27-.29-36.41-.54-1.46-.03-3.21.21-3.35-2-.11-1.85,1.09-2.44,2.7-2.95,6.95-2.21,8.09-3.77,8.12-10.95.04-10.16-.1-20.32.07-30.47.05-3.3-.7-4.74-4.38-4.69-14.49.19-28.98.16-43.46.01-3.3-.03-4.33,1.07-4.28,4.31.16,10.16.02,20.32.08,30.47.04,6.64,1.71,8.94,8.24,11.4,1.39.52,1.7,1.39,1.66,2.66-.06,1.76-1.19,2.22-2.68,2.22-4.83-.02-9.66-.08-14.49-.08-6.99,0-13.99.08-20.98.08-1.65,0-3.49.18-3.64-2.29-.15-2.41,1.45-2.41,3.22-2.71,5.42-.91,7.56-4.03,7.64-11.52.13-12.16.03-24.31.03-36.47h.02Z"/>
  <path class="cls-5" d="M391.8,807.03c-29.53,2.07-59.63-23.45-58.12-57.74,1.54-34.92,24.93-57.7,59.1-57.66,34.68.04,56.41,23.25,57.42,56.34,1.07,35-22.96,59.75-58.39,59.06ZM428.83,751.94c-.72-13.84-2.1-26.62-9.98-37.71-7.36-10.36-17.47-15.27-30-14.05-12.97,1.26-21.96,8.64-27.15,20.43-5.82,13.25-7.2,27.09-5.12,41.43,1.96,13.52,7.11,24.8,19.09,32.51,12.56,8.08,31.1,5.57,40.65-5.9,9.02-10.83,11.41-23.97,12.5-36.71Z"/>
  <path class="cls-2" d="M541.5,542.05c33.99-1.25,56.59,25.04,56.99,55.9.45,35.49-24.02,58.67-58.08,59.02-31.97.32-57.66-23.87-57.75-56.28-.09-34.33,24.63-59.54,58.83-58.63ZM576.7,599.03c.45-10-1.36-19.92-5.98-29.14-5.91-11.8-14.93-19.81-29.09-19.86-13.37-.05-26.04,7.81-30.98,19.51-8.29,19.6-8.46,39.26-.36,58.99,4.75,11.58,17.5,20.15,29.89,20.58,13.18.46,26.16-9.88,30.7-20.19,4.15-9.43,6.13-19.27,5.82-29.88Z"/>
  <path class="cls-2" d="M702.72,618.19c0-9.76,0-19.53,0-29.29,0-8.99.05-17.99-.06-26.98-.09-7.28-2.63-10.63-9.57-13.01-1.01-.35-1.86-.76-2.13-1.84-.33-1.32.37-2.3,1.35-2.99.65-.45,1.58-.96,2.26-.83,8.85,1.71,17.75,1.45,26.66.87,1.34-.09,2.26.61,2.24,2.07-.02,1.28-.61,2.4-1.91,2.59-8.92,1.35-8.81,8.42-8.85,14.75-.2,28.65-.06,57.29-.13,85.94,0,1.81,1.15,4.41-1.35,5.3-2.68.96-5.29.03-7.18-2.21-14.96-17.76-29.88-35.55-44.85-53.3-8.43-9.99-16.94-19.93-25.43-29.91-2.04,1.23-1.22,3.08-1.22,4.58-.05,20.65-.04,41.3,0,61.96.02,8.13,2.41,11.08,10.35,13.5,1.53.46,4.21.39,3.49,3.17-.56,2.16-2.96,2.38-4.55,2.12-8.79-1.43-17.61-.36-26.41-.65-1.78-.06-4.12.39-4.43-2.09-.38-3.04,2.24-2.59,4.14-2.9,4.12-.69,7.39-6.03,7.44-12.66.12-14.66.08-29.31.09-43.97,0-9.99,0-19.99-.02-29.98-.02-8.22-1.78-10.75-9.27-13.69-1.44-.57-3.73-.81-3.18-3.08.51-2.09,2.65-1.53,4.25-1.63,7.04-.47,14.17,2.14,21.17-.67,1.43-.58,2.44.75,3.31,1.76,14.96,17.56,29.92,35.1,44.84,52.69,5.89,6.94,11.67,13.96,17.5,20.95.47-.19.95-.38,1.42-.56Z"/>
  <path class="cls-5" d="M482.73,751.49c-.53,10.27.38,23.05.89,35.85.22,5.48,3.69,10,8.98,11.79.94.32,1.91.58,2.87.8,1.76.42,3.26,1.11,2.94,3.29-.32,2.17-2.14,1.73-3.55,1.74-9.66.03-19.32.03-28.99-.02-.97,0-2.01-.15-2.88-.53-.88-.39-1.71-1.13-1.71-2.26,0-1.02.98-1.52,1.67-1.6,11.47-1.34,11.29-10.65,11.48-18.38.55-21.81.29-43.65.09-65.47-.03-3.4-1.04-6.91-2.19-10.16-1.29-3.63-4.06-5.89-8.12-6.39-1.88-.23-3.77-1.01-3.31-3.47.45-2.41,2.59-1.63,4.1-1.65,4-.06,8.13.74,11.97-.01,9.02-1.76,14.27,2.46,19.54,9.2,7.84,10.04,16.72,19.32,24.83,29.15,8.19,9.91,17.5,18.91,24.65,29.68.09.14.19.28.3.4,1.72,1.98,3.73,5.53,5.87,4.6,2.74-1.2,1.56-4.93.92-7.71-.89-3.84.78-7.53.69-11.38-.29-12.3.15-24.61-.92-36.9-.48-5.47-3.17-9.36-8.63-11.23-1.9-.65-3.41-1.64-3.26-3.81.17-2.52,2.29-1.97,3.84-1.98,8.16-.05,16.33-.06,24.49.01,1.51.01,3.67-.79,4.14,1.6.47,2.4-1.28,2.87-3.25,3.45-7.3,2.15-6.8,8.77-7.35,14.3-.59,5.94-.13,11.98-.13,17.98,0,22.99.03,45.98-.04,68.97,0,1.82,1.12,4.57-1.45,5.23-2.5.64-4.71-1.19-6.32-3.07-13.08-15.35-26.14-30.72-39.12-46.16-7.11-8.45-14.04-17.05-21.09-25.55-2.64-3.18-5.36-6.3-8.06-9.42-.67-.77-1.48-1.51-2.57-1.24-1.53.37-1.29,1.74-1.29,2.87-.02,8.32,0,16.63,0,27.5Z"/>
  <path class="cls-5" d="M269.56,806.87c-14.98.98-27.91-3.35-39.07-11.85-11.33-8.63-17.9-20.76-19.45-34.91-1.14-10.37-1.33-21.13,2.12-31.07,3.5-10.07,9.77-18.66,18.51-25.26,12.83-9.7,27.31-13.52,43.16-12.55,9.92.6,19.16,4.27,28.7,6.65,6.37,1.59,7.68,5.02,7.23,10.72-.32,4.11-.25,8.27.67,12.41.49,2.18.57,5-2.45,5.75-3.04.76-3.58-1.43-4.5-3.88-5.73-15.22-20.1-24.96-36.66-23.33-12.32,1.21-23.7,7.43-29.6,21.83-3.12,7.62-4.26,15.41-5.02,23.09-.9,9.09.36,18.51,3.89,27.28,2.6,6.46,5.54,12.7,10.77,17.58,7.81,7.3,17.22,10.82,27.59,9.45,11.28-1.49,21.04-6.61,27.39-16.75,1.32-2.11,2.65-4.23,4.17-6.21.94-1.22,2.38-1.94,3.98-1.36,1.5.55,1.65,1.99,1.56,3.36-1.08,16.16-1.29,20.42-18.77,25.39-8.19,2.33-16.28,4.5-24.22,3.65Z"/>
  <path class="cls-2" d="M125.63,620.02c-5.66,0-11.33.09-16.99-.03-2.27-.05-3.68.52-4.55,2.81-2.05,5.37-5.23,10.37-5.39,16.33-.14,5.22,2.72,8.95,7.78,9.88,2.33.43,4.63.62,3.97,3.68-.66,3.02-3.17,2.19-5.3,1.93-8.45-1.04-16.91-1.03-25.36-.1-1.89.21-3.8.86-4.73-1.32-.99-2.33.77-3.36,2.58-4,8.07-2.83,10.37-10.13,13.22-16.98,10.05-24.17,20.06-48.34,30.06-72.53,1.84-4.45,3.81-8.88,5.2-13.47.95-3.14,3.3-3.49,5.66-3.84,2.86-.43,4.17,1.74,4.99,4,4.17,11.54,9.86,22.4,14.75,33.62,8.68,19.92,17.33,39.85,26.06,59.75,1.94,4.42,4.11,8.69,9.62,9.81,1.4.29,2.66,1.62,2.23,3.42-.43,1.84-2.03,2.17-3.57,1.93-12.26-1.87-24.59-.58-36.89-.84-1.49-.03-3.31.14-3.65-1.77-.34-1.95,1.63-2.24,2.88-2.91,7.92-4.22,8.08-5.02,4.63-13.53-1.74-4.29-3.32-8.64-5.27-12.85-1.08-2.33-2.43-3.12-4.94-3.05-5.66.17-11.33.05-16.99.06ZM125.5,611.98v-.02c4.15,0,8.3.02,12.45,0,5.37-.03,5.45-.22,3.11-5.3-.76-1.65-1.35-3.39-2.04-5.07-4.03-9.77-8.07-19.54-12.09-29.32-.37-.9-.5-2.07-1.8-2.02-.98.04-1.22.95-1.51,1.74-4.38,11.98-10.23,23.36-14.24,35.5-1.13,3.41-.35,4.61,3.16,4.52,4.31-.11,8.63-.03,12.95-.03Z"/>
  <path class="cls-2" d="M241.13,541.14c7.8-.65,15.02,1.31,22.22,3.36,4.99,1.41,7.35,4.74,7.3,9.89-.03,4.33,0,8.66-.02,12.99,0,2.02.16,4.28-2.68,4.49-2.39.18-3.67-1.34-4.16-3.5-1.4-6.19-4.12-11.42-9.56-15.17-9.87-6.8-24.28-5.02-31.09,3.44-5.95,7.39-3.15,17.5,5.64,22.56,9.76,5.62,19.83,10.72,29.63,16.29,16.57,9.41,22.24,23.79,15.91,41.69-3,8.47-9.47,14.21-17.83,17.68-13.57,5.64-27.23,5-40.63-.15-6.59-2.53-12.36-7.23-12.06-15.88.16-4.67-1.49-9.19-1.03-13.89.19-1.87-.08-3.76,2.65-3.86,2.26-.08,3.77.45,4.31,3.03,1.35,6.49,3.91,12.22,8.45,17.43,7.88,9.02,25.79,9.93,33.66,4.73,9.48-6.25,13.23-21.94-2.76-31.28-9.74-5.69-20.33-9.8-29.75-16.12-11.72-7.86-16.71-18.89-14.33-32.56,1.98-11.39,8.84-19.41,20.12-23.22,5.29-1.78,10.68-2.4,16.03-1.95Z"/>
  <path class="cls-2" d="M10.83,600.07c0-12.66-.01-25.33,0-37.99,0-5.97-.99-11.21-8.1-12.69-1.44-.3-2.98-1.19-2.71-3.07.32-2.2,2.18-2.28,3.88-2.19,4.63.26,9.26.85,13.89.88,15.83.12,31.66.06,47.49.04,1.66,0,3.34-.04,4.96-.33,6.23-1.12,6.74-.96,7.27,5.11.38,4.47.15,8.99.19,13.49.01,1.39-.19,2.77-1.66,3.33-1.77.67-3.08-.48-3.67-1.82-4.7-10.69-13.63-12.59-23.95-11.87-2.49.17-5,.03-7.5.03-8.57,0-8.8,0-9.08,8.62-.28,8.99-.22,18,0,26.99.15,6.2.79,6.56,7.13,6.56,4.5,0,9.02-.3,13.49.07,5.36.45,8.51-2.05,10.29-6.67.87-2.25,1.82-4.08,4.58-3.36,3,.78,2.52,3.24,1.98,5.3-1.68,6.34,1.34,12.55.37,18.84-.25,1.65.84,3.88-1.8,4.57-2.63.69-3.93-.63-4.84-2.98-2.23-5.73-7.33-6.61-12.54-6.87-4.49-.22-9.01.18-13.49-.12-3.53-.23-4.94,1.47-5.13,4.52-.75,11.82.43,23.6,1.04,35.38.19,3.64,3.43,4.61,6.45,5.21,1.79.36,3.37.81,3.17,3.01-.23,2.52-2.32,1.94-3.86,1.97-11.13.19-22.28-.67-33.4.83-1.95.26-4.89.85-5.18-2.28-.24-2.54,2.32-2.99,4.23-3.37,4.81-.97,6.43-4.17,6.43-8.65,0-13.5,0-26.99,0-40.49h.06Z"/>
  <path class="cls-5" d="M169.99,804.94c-5.66,0-11.33-.01-16.99.01-2.06,0-4.38.09-4.69-2.52-.29-2.44,2.1-2.86,3.78-3.11,4.87-.74,6.51-3.83,6.79-8.27,1.26-19.61,1.3-39.25.75-58.86-.23-8.12-.64-16.26-.78-24.39-.08-4.55-3.21-6.19-6.66-7.74-1.59-.72-3.95-1.18-3.13-3.67.68-2.06,2.94-2.17,4.66-1.97,10.79,1.3,21.62.27,32.42.62,1.87.06,4.78-1.39,5.28,1.96.42,2.84-2.31,2.97-4.07,3.45-6.18,1.69-6.4,7.26-6.47,11.62-.38,25.15-.52,50.31.11,75.45.12,4.8.05,12.27,8.51,12.74,1.28.07,2.08,1.15,1.87,2.5-.3,1.91-1.81,2.16-3.4,2.16-6,0-11.99,0-17.99,0Z"/>
  <path class="cls-2" d="M436.67,602.65c0-14.94-.03-26.27.02-37.6.01-2.68-.45-5.26-.86-7.89-.72-4.6-2.87-7.52-7.64-8.26-1.59-.25-3.03-1.17-2.96-2.85.09-1.98,1.93-2.01,3.43-2.01,12-.02,23.99-.02,35.99-.01,1.38,0,2.76.13,2.88,1.98.08,1.31-.51,2.5-1.75,2.7-9.16,1.46-8.9,8.81-8.97,15.21-.28,23.49-.07,46.99-.15,70.48-.01,3.91,1.33,7.5,2.07,11.23.56,2.84,3.3,2.93,5.39,3.77,1.44.58,2.93,1.23,2.37,3.19-.49,1.75-1.96,2.13-3.56,1.95-10.96-1.28-21.96-.26-32.93-.49-1.75-.04-4.29.59-4.66-1.71-.39-2.45,1.86-3.05,4.02-3.29,4.17-.48,5.76-3.33,6.35-7.12,2.21-14.25.23-28.59.94-39.26Z"/>
  <path class="cls-6" d="M372.25,488.71c-9.98-1.73-19.38-4.72-28.62-8.31-13.79-5.36-27-12.08-40.8-17.46-11.22-4.37-22.54-8.28-34.05-11.74-4.83-1.45-9.83-1.63-14.73-1.98-11.92-.86-23.88-1.55-35.86-1.15-1.26.04-3.01.63-3.71-.66-.94-1.73,1.09-2.47,1.95-3.55,7.57-9.54,15.69-18.67,23.76-27.73,9.73-10.92,16.83-23.36,23.39-35.94,10.16-19.47,19.45-39.45,26.48-60.41,5.18-15.43,9.02-31.11,11.8-47.11.77-4.43,2.31-8.03,7.09-10.82,7.21-4.2,14.47-8.48,21.45-13.17,17.49-11.73,35.43-22.78,53.16-34.16,2.08-1.34,3.9-3.09,5.88-4.6,11.19-8.5,23.72-15.03,34.97-23.39,18.1-13.46,37.72-24.68,55.69-38.31,2.84-2.16,4.62-.35,5.45,1.87,1.92,5.11,3.67,10.33,2.96,15.98-1.31,10.42-1.63,20.87.22,31.24,1.2,6.74,4.52,12.83,8.02,18.54,5.09,8.3,9.98,16.77,15.95,24.53,1.49,1.94,2.82,4.17,3.6,6.47,1.2,3.54-.12,6.26-3.37,8.39-5.11,3.35-10.9,5.98-13.34,12.37-.72,1.9-1.03,3.31.13,5.07,1.79,2.72,5.14,5.67,4.42,8.45-1.03,3.95-4.04,7.48-6.58,10.91-2.85,3.86-6.43,7.06-10.22,10.07-3.58,2.85-3.03,4.61,1.33,5.99,6.85,2.18,7.19,3.48,2.77,8.92-3.4,4.18-7.73,7.94-6.77,14.3.45,2.96,1.97,5.5,2.54,8.47,2.01,10.53-4.82,19.27-15.56,19.31-19.68.07-38.22-5.2-56.59-11.69-9.55-3.38-18.53-7.98-27.22-12.87-4.83-2.72-9.67-6.02-14.32-9.33-1.58-1.13-3.51-3.05-5.69-.65-2.12,2.34.31,3.9,1.34,5.09,4.63,5.38,9.82,10.06,16.03,13.81,3.4,2.05,6.74,4.61,9.9,7.19,3.61,2.94-.47,6.72-1.14,7.51-4.76,5.59-6.55,8.48-9.05,12.02-6.92,9.79-11.22,21.24-14.52,33.13-4.17,15.04-5.58,30.17-5.63,45.57-.04,10.82,2.64,21.32,4.18,31.95.38,2.65,3.26,4.54,3.32,7.89Z"/>
  <path class="cls-1" d="M602.82,75.56c-3.37,3.35-7.1,3.88-10.42,5.07-17.34,6.22-34.07,13.78-50.71,21.66-11.37,5.39-22.62,11.06-33.53,17.2-14.19,7.99-28.75,15.44-42.03,25.06-8.37,6.07-17.34,11.29-26,16.96-9,5.9-17.81,12.08-26.94,17.77-10.92,6.8-21.13,14.63-32.2,21.24-11.61,6.94-22.32,15.37-33.74,22.66-4.76,3.04-9.48,6.2-14.81,8.62-4.32,1.96-8.25,6.28-12.65,9.13-16.15,10.48-32.93,19.84-50.35,28.04-4.62,2.18-8.94,4.89-13.7,6.86-8.71,3.61-17.19,7.77-25.77,11.67-11.78,5.36-23.68,10.54-35.84,14.69-9.93,3.39-20.01,6.78-30.38,9.01-6.9,1.48-13.73,3.2-20.71,4.47-13.45,2.45-26.9,3.82-40.55,3.42-1.26-.04-2.82.41-3.47-1.23-.56-1.41.13-2.54,1.05-3.61,4.11-4.74,8.2-9.49,12.26-14.27,13.41-15.73,27.93-30.45,43.19-44.3,9.61-8.72,19.57-17.19,29.94-25.16,7.92-6.09,15.77-12.52,23.77-18.44,9.81-7.27,19.64-14.66,30.18-21.03,9.19-5.55,18.36-11.18,27.51-16.79,11.6-7.12,23.94-13.09,36.21-19.05,15.53-7.54,31.2-14.82,47.03-21.72,8.57-3.74,17.23-7.35,25.91-10.86,19.47-7.87,39.64-13.42,59.88-18.55,15.7-3.98,31.44-7.86,47.3-11.29,18.83-4.07,37.8-7.38,56.79-10.31,14.67-2.26,29.4-4.65,44.3-5.55,5.85-.35,11.58-2.6,18.47-1.38Z"/>
  <path class="cls-1" d="M203.04,134.05c-1.8-17.67,3.55-31.77,11.63-44.63,10.02-15.95,22.83-29.4,38.53-40.3,14.56-10.11,29.94-18.66,46.19-25.26,19.26-7.83,39.46-12.84,60.59-10.62,11.73,1.24,23.43,4.13,33.06,10.9,11.5,8.09,21.85,17.72,30.17,29.43,7.02,9.87,14.09,19.69,20.85,29.74,2.15,3.2,1.59,4.48-1.9,5.6-12.22,3.93-24.35,8.14-36.58,12.04-12.09,3.86-23.71,8.92-35.57,13.34-11.13,4.15-21.56,9.68-32.57,13.99-20.08,7.86-39.38,17.45-58.53,27.31-11.25,5.79-22.58,11.57-33.18,18.43-8.43,5.45-17.23,10.16-25.74,15.39-3.38,2.08-4.11-.16-4.96-2.11-5.69-13.06-9.02-26.86-11.84-40.74-.94-4.63-.15-9.61-.15-12.52Z"/>
  <path class="cls-1" d="M649.66,89.35c-2.31,8.38-5.97,16.24-11.71,22.95-5.82,6.8-11.19,13.92-18.49,19.49-6.26,4.77-10.88,11.67-17.12,16.46-14.65,11.23-29.1,22.81-45.93,30.94-12.35,5.97-24.23,12.89-36.52,18.99-3.68,1.82-7.52,3.42-11.07,5.47-3.86,2.22-5.7.38-6.68-2.86-1.39-4.59-2.38-9.34-2.42-14.16-.1-10.8.1-21.59-1.01-32.36-.32-3.06-1.53-5.74-2.65-8.51-2.03-5.03-1.03-7.57,3.72-10.06,7.69-4.04,15.52-7.86,23.01-12.24,8.86-5.17,18.21-9.3,27.29-13.99,13.57-7.01,27.64-12.88,42.02-17.87,12.61-4.38,25.08-9.28,38.26-11.95,5.22-1.06,9.92.26,14.57,1.86,3.3,1.14,4.16,4.48,4.74,7.84Z"/>
  <path class="cls-4" d="M125.5,611.98c-4.32,0-8.64-.09-12.95.03-3.51.09-4.29-1.11-3.16-4.52,4.01-12.14,9.86-23.52,14.24-35.5.29-.79.53-1.7,1.51-1.74,1.3-.05,1.43,1.11,1.8,2.02,4.02,9.78,8.06,19.55,12.09,29.32.69,1.68,1.28,3.42,2.04,5.07,2.34,5.08,2.25,5.27-3.11,5.3-4.15.02-8.3,0-12.45,0v.02Z"/>
</svg>